<svg xmlns="http://www.w3.org/2000/svg" x="0px" y="0px" width="100" height="100" viewBox="0 0 100 100">
<path fill="#eddc67" d="M45.445 25.28L50 17.39 54.555 25.28zM40.024 34.67L44.579 26.78 49.134 34.67zM50.866 34.67L55.421 26.78 59.976 34.67z"></path><path fill="#1f212b" d="M55.421,27.78l1.845,3.195l1.845,3.195h-3.689h-3.689l1.845-3.195L55.421,27.78 M55.421,25.78 l-2.711,4.695L50,35.17h5.421h3.689c0.77,0,1.251-0.833,0.866-1.5l-1.845-3.195L55.421,25.78L55.421,25.78z"></path><path fill="#eddc67" d="M50,49.981c-0.597-1.701-0.914-1.701-1.179-1.701c-0.117,0-0.367,0-0.829,0.473 c-0.216-1.314-0.592-1.421-0.774-1.474l-0.067-0.019l-0.114-0.006c-0.127,0-0.439,0-1.074,0.677 c-0.045-0.56-0.161-1.105-0.417-1.389c-0.149-0.165-0.339-0.256-0.549-0.262c0,0,0,0,0,0c-0.522,0-1.186,0.61-1.807,1.364 c0.152-2.615,1.312-3.458,2.832-4.563c0.35-0.255,0.711-0.518,1.075-0.813c1.446-1.172,2.388-3.11,2.904-4.445 c0.516,1.335,1.458,3.273,2.904,4.445c0.363,0.295,0.725,0.558,1.075,0.813c1.521,1.105,2.679,1.948,2.832,4.562 c-0.619-0.752-1.277-1.362-1.784-1.362c-0.233,0.006-0.423,0.097-0.572,0.262c-0.256,0.283-0.372,0.829-0.417,1.389 c-0.634-0.677-0.947-0.677-1.074-0.677h-0.07l-0.112,0.025c-0.182,0.052-0.558,0.16-0.774,1.474 c-0.462-0.473-0.712-0.473-0.829-0.473C50.914,48.28,50.597,48.28,50,49.981z"></path><path fill="#1f212b" d="M50,50.481c-0.212,0-0.401-0.134-0.472-0.334c-0.421-1.199-0.644-1.357-0.667-1.372 c-0.169,0.005-0.368,0.18-0.511,0.327c-0.132,0.134-0.33,0.183-0.508,0.127c-0.18-0.057-0.313-0.21-0.343-0.396 c-0.039-0.235-0.183-1.006-0.418-1.074l-0.069-0.006c-0.176,0-0.538,0.363-0.684,0.519c-0.136,0.144-0.344,0.194-0.53,0.13 c-0.187-0.065-0.317-0.234-0.333-0.432c-0.064-0.789-0.238-1.037-0.29-1.094c-0.077-0.085-0.147-0.097-0.193-0.098 c-0.06,0-0.479,0.057-1.406,1.182c-0.138,0.167-0.368,0.227-0.568,0.147c-0.201-0.079-0.329-0.278-0.316-0.495 c0.166-2.851,1.497-3.818,3.037-4.938c0.352-0.256,0.702-0.511,1.054-0.796c1.342-1.088,2.238-2.905,2.752-4.237 c0.148-0.386,0.784-0.386,0.933,0c0.515,1.332,1.41,3.148,2.752,4.237c0.352,0.286,0.702,0.541,1.042,0.788 c1.552,1.128,2.882,2.096,3.049,4.945c0.013,0.216-0.115,0.416-0.316,0.495c-0.204,0.079-0.431,0.019-0.569-0.147 c-0.943-1.147-1.354-1.18-1.397-1.18c-0.079,0.002-0.141,0.031-0.202,0.098c-0.052,0.057-0.226,0.305-0.29,1.094 c-0.016,0.197-0.147,0.366-0.333,0.432c-0.188,0.064-0.395,0.014-0.53-0.13c-0.146-0.156-0.508-0.519-0.709-0.519l-0.073,0.013 c-0.207,0.06-0.351,0.832-0.39,1.067c-0.03,0.186-0.163,0.339-0.343,0.396s-0.376,0.007-0.508-0.128 c-0.144-0.147-0.342-0.322-0.471-0.322c-0.063,0.009-0.286,0.167-0.707,1.367C50.401,50.347,50.212,50.481,50,50.481z M48.821,47.78c0.448,0,0.794,0.164,1.179,0.9c0.385-0.736,0.731-0.9,1.179-0.9c0.14,0,0.31,0.019,0.516,0.116 c0.253-0.784,0.613-1.001,0.948-1.097l0.142-0.033c0.259-0.056,0.537-0.008,0.905,0.216c0.093-0.331,0.224-0.587,0.394-0.775 c0.244-0.269,0.565-0.417,0.929-0.427h0c0.326,0,0.67,0.133,1.046,0.41c-0.404-1.271-1.245-1.883-2.375-2.704 c-0.366-0.267-0.73-0.532-1.096-0.829c-1.157-0.938-2.004-2.317-2.589-3.56c-0.584,1.244-1.432,2.623-2.589,3.561 c-0.366,0.297-0.73,0.562-1.083,0.819c-1.142,0.83-1.985,1.443-2.39,2.719c0.381-0.281,0.729-0.416,1.058-0.416 c0.359,0.011,0.681,0.162,0.92,0.427c0.169,0.187,0.3,0.443,0.394,0.772c0.309-0.19,0.542-0.225,0.727-0.225l0.14,0.006 c0.038,0.002,0.075,0.008,0.11,0.019c0.39,0.111,0.762,0.332,1.018,1.117C48.511,47.799,48.681,47.78,48.821,47.78z"></path><path fill="#eddc67" d="M50,81.335c-0.145-0.589-0.312-1.23-0.489-1.828c-0.395-1.325-1.203-2.573-1.586-3.118 c0.366-0.616,1.127-2.09,1.201-3.783c0.072-1.663-0.69-3.138-1.105-3.81c0.524-0.546,1.38-1.788,1.054-3.85 c-0.31-1.966-2.966-3.225-4.74-3.854c0.324-0.168,0.648-0.388,0.919-0.675c0.499-0.526,0.728-1.064,0.969-1.634 c0.199-0.469,0.405-0.954,0.794-1.538c0.534-0.8,1.091-1.323,1.629-1.828c0.326-0.306,0.634-0.595,0.904-0.919 c0.181-0.217,0.329-0.45,0.449-0.679c0.121,0.229,0.269,0.462,0.45,0.679c0.27,0.324,0.578,0.613,0.904,0.919 c0.538,0.505,1.095,1.028,1.628,1.828c0.389,0.583,0.595,1.068,0.794,1.538c0.242,0.569,0.47,1.107,0.969,1.634 c0.271,0.287,0.595,0.507,0.919,0.675c-1.774,0.629-4.43,1.887-4.74,3.854c-0.326,2.062,0.53,3.304,1.054,3.85 c-0.415,0.672-1.177,2.147-1.104,3.81c0.073,1.692,0.835,3.167,1.201,3.783c-0.383,0.544-1.191,1.792-1.586,3.118 C50.312,80.105,50.145,80.746,50,81.335z"></path><path fill="#1f212b" d="M50,81.835c-0.23,0-0.431-0.157-0.486-0.381c-0.143-0.582-0.307-1.214-0.483-1.804 c-0.38-1.279-1.187-2.505-1.516-2.973c-0.113-0.161-0.121-0.374-0.021-0.543c0.317-0.534,1.062-1.949,1.132-3.549 c0.065-1.507-0.618-2.856-1.031-3.525c-0.12-0.194-0.093-0.444,0.064-0.609c0.469-0.489,1.212-1.584,0.921-3.426 c-0.276-1.747-2.884-2.918-4.414-3.46c-0.188-0.066-0.318-0.238-0.332-0.437s0.092-0.387,0.269-0.478 c0.315-0.164,0.58-0.357,0.787-0.575c0.437-0.461,0.639-0.936,0.872-1.485c0.198-0.467,0.423-0.996,0.838-1.62 c0.565-0.847,1.143-1.39,1.702-1.914c0.317-0.298,0.614-0.576,0.864-0.876c0.143-0.172,0.274-0.371,0.391-0.592 c0.173-0.328,0.712-0.328,0.885,0c0.116,0.22,0.248,0.419,0.392,0.592c0.25,0.3,0.546,0.579,0.86,0.874 c0.562,0.528,1.139,1.07,1.704,1.917c0.415,0.624,0.64,1.153,0.838,1.62c0.233,0.549,0.435,1.024,0.872,1.485 c0.207,0.218,0.471,0.412,0.787,0.575c0.177,0.091,0.283,0.279,0.269,0.478s-0.144,0.371-0.332,0.437 c-1.53,0.542-4.138,1.713-4.413,3.46c-0.292,1.842,0.452,2.938,0.92,3.426c0.158,0.165,0.184,0.415,0.064,0.609 c-0.413,0.669-1.096,2.018-1.03,3.525c0.069,1.6,0.814,3.015,1.131,3.549c0.1,0.169,0.092,0.382-0.021,0.543 c-0.329,0.468-1.135,1.694-1.516,2.973c-0.175,0.59-0.34,1.222-0.482,1.804C50.431,81.678,50.23,81.835,50,81.835z M48.514,76.365 c0.457,0.683,1.119,1.8,1.476,3c0.003,0.011,0.007,0.022,0.01,0.034c0.003-0.011,0.007-0.022,0.01-0.034 c0.357-1.199,1.019-2.317,1.476-3c-0.443-0.808-1.043-2.174-1.111-3.737c-0.068-1.555,0.524-2.939,0.991-3.774 c-0.574-0.717-1.246-2.019-0.934-3.986c0.292-1.849,2.265-3.105,4.166-3.899c-0.075-0.067-0.146-0.136-0.214-0.207 c-0.562-0.592-0.818-1.197-1.067-1.782c-0.19-0.447-0.386-0.91-0.75-1.456c-0.501-0.751-1.036-1.253-1.553-1.739 c-0.341-0.32-0.659-0.619-0.948-0.966c-0.022-0.026-0.044-0.053-0.065-0.081c-0.021,0.027-0.043,0.054-0.065,0.081 c-0.29,0.348-0.608,0.646-0.945,0.962c-0.521,0.489-1.056,0.991-1.557,1.742c-0.363,0.545-0.56,1.008-0.75,1.456 c-0.249,0.585-0.505,1.19-1.067,1.783c-0.067,0.071-0.139,0.14-0.214,0.207c1.9,0.794,3.874,2.051,4.166,3.899 c0.312,1.967-0.36,3.269-0.934,3.986c0.466,0.835,1.059,2.219,0.991,3.774C49.558,74.191,48.957,75.558,48.514,76.365z"></path><path fill="#eddc67" d="M38.284,52.23c-2.579-0.897-3.869-4.037-3.813-7.346c0.056-3.308,1.794-5.719,1.794-5.719 s-3.437,1.12-5.202,4.573c-4.866-0.817-18.552-3.524-29.937-9.676c0,0,0.541,7.647,6.654,10.037 c6.952,2.719,18.019,3.643,22.271,3.908c-0.001,0.064-0.01,0.12-0.01,0.185c0,0.208,0.023,0.403,0.034,0.605 c-3.219,0.466-13.222,1.63-21.391-0.452l-1.497-0.381l0.356,1.503c0.525,2.21,2.726,6.389,7.302,6.389 c4.412,0,13.613-2.032,16.404-2.672c0.097,0.188,0.191,0.379,0.296,0.558c-2.008,1.38-7.536,4.746-14.061,5.012l-1.701,0.069 l0.972,1.398c0.101,0.145,2.275,3.203,6.065,3.203c0.429,0,0.88-0.039,1.35-0.126c4.117-0.764,8.496-4.703,10.156-6.325 c0.183,0.152,0.367,0.297,0.551,0.434c-1.525,2.242-4.776,7.004-5.776,8.317l-0.865,1.135l1.387,0.339 c0.177,0.043,1.002,0.231,2.008,0.231c1.165,0,2.57-0.251,3.491-1.269c1.051-1.162,2.773-4.837,3.684-6.873 c0.012,0.002,0.027,0.006,0.039,0.008c2.075,0.308,3.495-1.115,3.645-2.411C42.657,55.427,42.552,53.715,38.284,52.23z"></path><path fill="#1f212b" d="M31.63,68.429c-1.101,0-1.998-0.199-2.246-0.26l-1.385-0.338c-0.328-0.08-0.593-0.32-0.706-0.638 c-0.112-0.318-0.057-0.671,0.147-0.939l0.865-1.135c0.536-0.704,1.758-2.456,2.988-4.244c-2.027,1.499-4.51,2.956-6.941,3.407 c-0.515,0.095-1.03,0.143-1.533,0.143c-4.223,0-6.624-3.259-6.884-3.63l-0.973-1.4c-0.208-0.3-0.237-0.689-0.074-1.016 c0.163-0.327,0.49-0.539,0.855-0.554l1.701-0.069c3.815-0.156,7.283-1.419,9.855-2.69c-3.96,0.815-9.347,1.791-12.455,1.791 c-5.202,0-7.688-4.682-8.275-7.158l-0.356-1.503c-0.081-0.341,0.022-0.699,0.272-0.944c0.25-0.246,0.608-0.342,0.948-0.256 l1.497,0.381c4.782,1.22,10.268,1.292,14.542,1.06c-5.08-0.571-11.435-1.598-16.057-3.405c-6.625-2.59-7.263-10.56-7.287-10.897 c-0.026-0.364,0.149-0.713,0.456-0.911c0.307-0.196,0.697-0.211,1.018-0.04c10.671,5.767,23.323,8.467,28.934,9.451 c1.996-3.271,5.272-4.371,5.419-4.419c0.411-0.134,0.862,0.011,1.118,0.361c0.255,0.35,0.257,0.824,0.003,1.174 c-0.014,0.02-1.555,2.219-1.605,5.152c-0.054,3.195,1.179,5.701,3.142,6.384c4.672,1.625,5.102,3.706,4.87,5.713 c-0.108,0.939-0.644,1.841-1.47,2.475c-0.733,0.562-1.631,0.859-2.583,0.864c-1.128,2.479-2.57,5.393-3.566,6.494 C34.917,67.877,33.454,68.429,31.63,68.429z M29.958,66.25c0.259,0.057,0.905,0.18,1.672,0.18c0.867,0,2.047-0.163,2.75-0.939 c0.688-0.76,2.001-3.231,3.513-6.611c0.18-0.401,0.607-0.637,1.037-0.583c0.036,0.004,0.09,0.015,0.125,0.023 c0.808,0.115,1.397-0.169,1.74-0.432c0.386-0.297,0.655-0.725,0.7-1.117c0.117-1.013,0.263-2.272-3.54-3.595l0,0 c-2.793-0.972-4.553-4.232-4.484-8.307c0.021-1.203,0.242-2.294,0.53-3.218c-0.737,0.62-1.49,1.454-2.048,2.544 c-0.199,0.388-0.627,0.6-1.056,0.531c-5.018-0.842-17.442-3.34-28.429-8.837c0.568,2.244,2.03,5.855,5.676,7.281 c6.788,2.654,17.625,3.57,21.969,3.841c0.533,0.033,0.946,0.479,0.938,1.014c0,0.021-0.006,0.13-0.008,0.152 c-0.002,0.127,0.007,0.233,0.015,0.338l0.016,0.231c0.027,0.517-0.343,0.969-0.855,1.043c-2.969,0.429-13.278,1.662-21.675-0.446 c0.504,1.968,2.421,5.515,6.303,5.515c4.313,0,13.475-2.026,16.18-2.647c0.447-0.103,0.903,0.111,1.112,0.516l0.065,0.126 c0.066,0.13,0.132,0.26,0.205,0.383c0.266,0.453,0.137,1.034-0.295,1.332c-2.122,1.459-7.76,4.87-14.463,5.182 c0.382,0.5,2.218,2.677,5.171,2.677c0.381,0,0.774-0.037,1.169-0.11c3.835-0.712,8.018-4.473,9.638-6.057 c0.367-0.359,0.945-0.381,1.337-0.055c0.169,0.14,0.339,0.274,0.509,0.4c0.431,0.319,0.533,0.922,0.231,1.366 C33.994,60.485,31.006,64.856,29.958,66.25z"></path><path fill="#eddc67" d="M44.92,71.53c-0.067-0.042-1.297-0.065-2.815-0.077l2.847-3.703l0.016-0.025 c0.174-0.274,0.275-0.599,0.275-0.947c0-0.977-0.792-1.769-1.769-1.769c-0.748,0-1.388,0.464-1.646,1.121l-0.011,0.029 l-3.177,5.285c-3.704,0-7.263,0.033-7.38,0.05c-0.21,0.03-0.93,0.24-0.9,0.819c0.03,0.579,5.205,6.546,5.205,6.546l-0.361-4.027 l5.055,0.096l0.226,1.987c0,0,4.585-4.065,4.795-4.395C45.49,72.19,45.16,71.68,44.92,71.53z"></path><path fill="#1f212b" d="M35.565,79.858c-0.284,0-0.562-0.121-0.756-0.345c-5.4-6.227-5.429-6.782-5.448-7.149 c-0.054-1.051,0.843-1.731,1.758-1.861c0.266-0.039,4.667-0.057,6.955-0.06l2.848-4.739c0.455-1.048,1.44-1.697,2.552-1.697 c1.527,0,2.769,1.242,2.769,2.769c0,0.528-0.149,1.041-0.431,1.484c-0.016,0.025-0.049,0.074-0.067,0.098l-1.63,2.12 c1.052,0.027,1.133,0.078,1.333,0.201c0,0,0.001,0.001,0.002,0.001c0.401,0.25,0.746,0.745,0.856,1.231 c0.092,0.408,0.028,0.814-0.182,1.144c-0.085,0.134-0.285,0.449-4.975,4.606c-0.28,0.247-0.674,0.318-1.021,0.186 c-0.349-0.133-0.594-0.45-0.636-0.821l-0.127-1.117l-3.065-0.058l0.262,2.916c0.039,0.432-0.206,0.84-0.605,1.01 C35.83,79.832,35.697,79.858,35.565,79.858z M31.613,72.483c0.501,0.696,1.517,1.953,2.675,3.335l-0.081-0.898 c-0.025-0.283,0.071-0.563,0.265-0.771c0.193-0.208,0.476-0.311,0.75-0.318l5.056,0.096c0.501,0.01,0.918,0.389,0.975,0.887 l0.008,0.069c1.061-0.951,2.046-1.844,2.647-2.407c-0.394-0.009-0.969-0.018-1.811-0.024c-0.379-0.003-0.725-0.221-0.891-0.562 c-0.166-0.341-0.125-0.747,0.106-1.048l2.847-3.703c0.043-0.075,0.084-0.217,0.084-0.363c0-0.424-0.345-0.769-0.769-0.769 c-0.318,0-0.6,0.191-0.716,0.487c-0.02,0.051-0.056,0.13-0.084,0.178l-3.176,5.285c-0.181,0.301-0.506,0.485-0.857,0.485 C35.437,72.443,32.524,72.467,31.613,72.483z M31.304,72.008C31.304,72.008,31.304,72.008,31.304,72.008L31.304,72.008z"></path><path fill="#eddc67" d="M61.842,52.23c2.579-0.897,3.869-4.037,3.813-7.346c-0.056-3.308-1.794-5.719-1.794-5.719 s3.437,1.12,5.202,4.573C73.93,42.922,87.615,40.215,99,34.063c0,0-0.541,7.647-6.654,10.037 c-6.952,2.719-18.019,3.643-22.271,3.908c0.001,0.064,0.01,0.12,0.01,0.185c0,0.208-0.023,0.403-0.034,0.605 c3.219,0.466,13.222,1.63,21.391-0.452l1.497-0.381l-0.356,1.503c-0.525,2.21-2.726,6.389-7.302,6.389 c-4.412,0-13.613-2.032-16.404-2.672c-0.097,0.188-0.191,0.379-0.296,0.558c2.008,1.38,7.536,4.746,14.061,5.012l1.701,0.069 l-0.972,1.398c-0.101,0.145-2.275,3.203-6.065,3.203c-0.429,0-0.88-0.039-1.35-0.126c-4.117-0.764-8.496-4.703-10.156-6.325 c-0.183,0.152-0.367,0.297-0.551,0.434c1.525,2.242,4.776,7.004,5.776,8.317l0.865,1.135l-1.387,0.339 c-0.177,0.043-1.002,0.231-2.008,0.231c-1.165,0-2.57-0.251-3.491-1.269c-1.051-1.162-2.773-4.837-3.684-6.873 c-0.012,0.002-0.027,0.006-0.039,0.008c-2.075,0.308-3.495-1.115-3.645-2.411C57.469,55.427,57.574,53.715,61.842,52.23z"></path><path fill="#1f212b" d="M64.263,66.832c-0.996-1.101-2.437-4.016-3.566-6.494c-0.952-0.005-1.85-0.302-2.583-0.864 c-0.826-0.633-1.362-1.535-1.47-2.475c-0.232-2.007,0.197-4.088,4.87-5.713c1.963-0.683,3.196-3.189,3.142-6.384 c-0.05-2.933-1.591-5.132-1.605-5.152c-0.253-0.351-0.252-0.825,0.003-1.174c0.256-0.35,0.707-0.495,1.118-0.361 c0.147,0.048,3.423,1.147,5.419,4.419c5.611-0.983,18.263-3.684,28.934-9.451c0.321-0.172,0.71-0.157,1.018,0.04 c0.307,0.198,0.481,0.547,0.456,0.911c-0.024,0.338-0.663,8.307-7.287,10.897c-4.622,1.807-10.977,2.834-16.057,3.405 c4.273,0.232,9.76,0.16,14.542-1.06l1.497-0.381c0.34-0.085,0.699,0.011,0.948,0.256c0.25,0.245,0.353,0.603,0.272,0.944 l-0.356,1.503c-0.587,2.476-3.073,7.158-8.275,7.158c-3.108,0-8.494-0.975-12.455-1.791c2.573,1.271,6.04,2.534,9.855,2.69 l1.701,0.069c0.365,0.015,0.692,0.227,0.855,0.554c0.163,0.327,0.134,0.716-0.074,1.016l-0.973,1.4 c-0.26,0.372-2.661,3.63-6.884,3.63c-0.503,0-1.019-0.048-1.533-0.143c-2.431-0.452-4.914-1.908-6.941-3.407 c1.23,1.788,2.452,3.54,2.988,4.244l0.865,1.135c0.205,0.268,0.26,0.622,0.147,0.939c-0.113,0.318-0.378,0.558-0.706,0.638 l-1.385,0.338c-0.249,0.061-1.145,0.26-2.246,0.26C66.672,68.429,65.208,67.877,64.263,66.832z M64.422,57.97 c-0.302-0.444-0.2-1.047,0.231-1.366c0.17-0.126,0.34-0.26,0.509-0.4c0.393-0.326,0.97-0.304,1.337,0.055 c1.62,1.584,5.803,5.345,9.638,6.057c0.395,0.073,0.788,0.11,1.169,0.11c2.953,0,4.789-2.177,5.171-2.677 c-6.704-0.312-12.342-3.723-14.463-5.182c-0.433-0.298-0.562-0.879-0.295-1.332c0.073-0.124,0.138-0.253,0.205-0.383l0.065-0.126 c0.209-0.405,0.665-0.619,1.112-0.516c2.706,0.621,11.868,2.647,16.18,2.647c3.881,0,5.799-3.547,6.303-5.515 c-8.397,2.108-18.706,0.875-21.675,0.446c-0.512-0.074-0.883-0.526-0.855-1.043l0.016-0.231c0.008-0.105,0.017-0.211,0.015-0.338 c-0.002-0.021-0.008-0.13-0.008-0.152c-0.008-0.534,0.405-0.98,0.938-1.014c4.344-0.271,15.181-1.188,21.969-3.841 c3.646-1.426,5.108-5.037,5.676-7.281c-10.987,5.498-23.412,7.995-28.429,8.837c-0.429,0.068-0.857-0.143-1.056-0.531 c-0.558-1.091-1.311-1.924-2.048-2.544c0.288,0.924,0.51,2.016,0.53,3.218c0.069,4.075-1.691,7.335-4.484,8.307l0,0 c-3.803,1.323-3.657,2.583-3.54,3.595c0.045,0.392,0.313,0.82,0.7,1.117c0.343,0.262,0.933,0.546,1.74,0.432 c0.035-0.008,0.09-0.019,0.125-0.023c0.429-0.054,0.857,0.182,1.037,0.583c1.512,3.38,2.826,5.851,3.513,6.611 c0.703,0.776,1.883,0.939,2.75,0.939c0.767,0,1.413-0.123,1.672-0.18C69.12,64.856,66.132,60.485,64.422,57.97z"></path><path fill="#eddc67" d="M55.206,71.53c0.067-0.042,1.297-0.065,2.815-0.077l-2.847-3.703l-0.016-0.025 c-0.174-0.274-0.275-0.599-0.275-0.947c0-0.977,0.792-1.769,1.769-1.769c0.748,0,1.388,0.464,1.646,1.121l0.011,0.029l3.177,5.285 c3.704,0,7.263,0.033,7.38,0.05c0.21,0.03,0.93,0.24,0.9,0.819c-0.03,0.579-5.205,6.546-5.205,6.546l0.361-4.027l-5.055,0.096 l-0.226,1.987c0,0-4.585-4.065-4.795-4.395C54.636,72.19,54.966,71.68,55.206,71.53z"></path><path fill="#1f212b" d="M64.17,79.778c-0.399-0.17-0.644-0.578-0.605-1.01l0.262-2.916l-3.065,0.058l-0.127,1.117 c-0.042,0.371-0.287,0.688-0.636,0.821c-0.348,0.132-0.742,0.062-1.021-0.186c-4.69-4.158-4.89-4.472-4.975-4.606 c-0.209-0.33-0.274-0.736-0.182-1.144c0.11-0.486,0.455-0.981,0.856-1.231c0,0,0.001-0.001,0.002-0.001 c0.199-0.124,0.281-0.174,1.333-0.201l-1.63-2.12c-0.018-0.023-0.051-0.073-0.067-0.098c-0.282-0.443-0.431-0.957-0.431-1.484 c0-1.527,1.242-2.769,2.769-2.769c1.112,0,2.098,0.649,2.552,1.697l2.848,4.739c2.289,0.002,6.689,0.021,6.955,0.06 c0.915,0.13,1.812,0.811,1.758,1.861c-0.019,0.367-0.048,0.922-5.448,7.149c-0.194,0.224-0.472,0.345-0.756,0.345 C64.429,79.858,64.296,79.832,64.17,79.778z M61.486,72.443c-0.351,0-0.676-0.184-0.857-0.485l-3.176-5.285 c-0.029-0.047-0.064-0.126-0.084-0.178c-0.117-0.296-0.398-0.487-0.716-0.487c-0.424,0-0.769,0.345-0.769,0.769 c0,0.146,0.041,0.289,0.084,0.363l2.847,3.703c0.231,0.301,0.272,0.707,0.106,1.048c-0.167,0.341-0.512,0.559-0.891,0.562 c-0.842,0.006-1.417,0.015-1.811,0.024c0.602,0.563,1.586,1.456,2.647,2.407l0.008-0.069c0.057-0.498,0.473-0.877,0.975-0.887 l5.056-0.096c0.274,0.007,0.557,0.111,0.75,0.318c0.194,0.208,0.29,0.488,0.265,0.771l-0.081,0.898 c1.158-1.382,2.174-2.64,2.675-3.335C67.601,72.467,64.689,72.443,61.486,72.443z M68.821,72.008 C68.822,72.008,68.822,72.008,68.821,72.008L68.821,72.008z"></path><g><path fill="#1f212b" d="M44.999,34.17L44.999,34.17l-0.934,0l0.094,0c-0.276,0-0.5,0.224-0.5,0.5 c0,0.276,0.224,0.5,0.5,0.5c0,0,0.839,0,0.839,0c0,0,0,0,0.001,0c0.276,0,0.5-0.224,0.5-0.5 C45.499,34.394,45.275,34.17,44.999,34.17z"></path><path fill="#1f212b" d="M47.289,30.475l-2.711-4.695l-2.711,4.695l-1.845,3.195c-0.385,0.667,0.096,1.5,0.866,1.5h0.766 c0,0,0,0,0.001,0s0,0,0.001,0h0.016v-0.003c0.268-0.009,0.483-0.227,0.483-0.497c0-0.27-0.215-0.487-0.483-0.497V34.17H40.89 l1.845-3.195l1.845-3.195l1.845,3.195l1.845,3.195h-0.755v0.003c-0.269,0.008-0.486,0.226-0.486,0.497 c0,0.271,0.217,0.49,0.486,0.497v0.003h0.013c0,0,0,0,0.001,0s0,0,0.001,0H50L47.289,30.475z"></path></g><g><path fill="#1f212b" d="M52.075,21.989C52.075,21.989,52.075,21.989,52.075,21.989c0.137,0.241,0.442,0.324,0.682,0.188 c0.24-0.137,0.324-0.442,0.187-0.682l0,0l-0.462-0.812l0.047,0.082c-0.137-0.24-0.442-0.324-0.682-0.187 c-0.24,0.137-0.324,0.442-0.187,0.682C51.66,21.26,52.075,21.989,52.075,21.989z"></path><path fill="#1f212b" d="M54.171,23.614l-0.008,0.005c-0.089-0.14-0.237-0.238-0.415-0.238c-0.276,0-0.5,0.224-0.5,0.5 c0,0.084,0.026,0.16,0.063,0.23l-0.006,0.003l0.384,0.666H50h-3.689l1.845-3.195L50,18.39l0.433,0.75l0.008-0.004 c0.087,0.148,0.241,0.253,0.425,0.253c0.276,0,0.5-0.224,0.5-0.5c0-0.091-0.031-0.171-0.073-0.245l0.006-0.004l-0.433-0.75 c-0.385-0.667-1.347-0.667-1.732,0l-1.845,3.195l-2.711,4.695H50h5.421L54.171,23.614z"></path></g>
</svg>